<?xml version="1.0" encoding="utf-8"?>
<!-- Generator: Adobe Illustrator 22.0.0, SVG Export Plug-In . SVG Version: 6.00 Build 0)  -->
<svg version="1.1" id="Слой_1" xmlns="http://www.w3.org/2000/svg" xmlns:xlink="http://www.w3.org/1999/xlink" x="0px" y="0px"
	 viewBox="0 0 100 100" style="enable-background:new 0 0 100 100;" xml:space="preserve">
<style type="text/css">
	.st0{fill:url(#SVGID_1_);}
	.st1{fill:#E9F4FC;}
	.st2{opacity:0.52;fill:#E8C5CF;}
	.st3{fill:url(#SVGID_2_);}
	.st4{fill:#E8C5CF;}
	.st5{fill:url(#SVGID_3_);}
	.st6{fill:url(#SVGID_4_);}
	.st7{fill:url(#SVGID_5_);}
	.st8{fill:url(#SVGID_6_);}
	.st9{fill:url(#SVGID_7_);}
	.st10{fill:url(#SVGID_8_);}
	.st11{fill:url(#SVGID_9_);}
	.st12{fill:url(#SVGID_10_);}
	.st13{fill:url(#SVGID_11_);}
	.st14{fill:url(#SVGID_12_);}
</style>
<g>
	<g>
		<linearGradient id="SVGID_1_" gradientUnits="userSpaceOnUse" x1="5.9954" y1="53.2606" x2="44.3514" y2="53.2606">
			<stop  offset="0" style="stop-color:#F28B6C"/>
			<stop  offset="1" style="stop-color:#C7586B"/>
		</linearGradient>
		<circle class="st0" cx="25.2" cy="53.3" r="19.2"/>
		<ellipse class="st1" cx="9.2" cy="63.3" rx="5.1" ry="4.6"/>
		<ellipse class="st2" cx="40.3" cy="63.3" rx="5.1" ry="4.8"/>
		<path class="st1" d="M13.7,47.2c-2.5,0-4.6,2.5-4.6,5.5v12.8h0c0.3,9.4,7.1,16.9,15.5,16.9s15.2-7.5,15.5-16.9h0V52.7
			c0-3.1-2.5-5.5-5.5-5.5H13.7z"/>
		<linearGradient id="SVGID_2_" gradientUnits="userSpaceOnUse" x1="18.8003" y1="52.2393" x2="19.3498" y2="72.1568">
			<stop  offset="0" style="stop-color:#1570A3"/>
			<stop  offset="1" style="stop-color:#B9D7E4"/>
		</linearGradient>
		<ellipse class="st3" cx="19.1" cy="61.9" rx="1.9" ry="1.9"/>
		<ellipse class="st4" cx="30.7" cy="63.9" rx="1.9" ry="1.9"/>
	</g>
	<g>
		<linearGradient id="SVGID_3_" gradientUnits="userSpaceOnUse" x1="69.8326" y1="39.1336" x2="81.9389" y2="39.1336">
			<stop  offset="0" style="stop-color:#F28B6C"/>
			<stop  offset="1" style="stop-color:#C7586B"/>
		</linearGradient>
		<circle class="st5" cx="75.9" cy="39.1" r="6.1"/>
		<linearGradient id="SVGID_4_" gradientUnits="userSpaceOnUse" x1="64.3512" y1="47.5044" x2="77.1717" y2="56.6618">
			<stop  offset="0" style="stop-color:#F28B6C"/>
			<stop  offset="1" style="stop-color:#C7586B"/>
		</linearGradient>
		<ellipse class="st6" cx="75.9" cy="55.7" rx="17.7" ry="16.2"/>
		<ellipse class="st2" cx="59.7" cy="62.8" rx="5.1" ry="4.6"/>
		<ellipse class="st1" cx="90.8" cy="62.8" rx="5.1" ry="4.8"/>
		<path class="st1" d="M64.3,46.7c-2.5,0-4.6,2.5-4.6,5.5V65h0C60.1,74.4,66.9,82,75.3,82S90.5,74.4,90.8,65h0V52.1
			c0-3-2.4-5.4-5.4-5.4H64.3z"/>
		<ellipse class="st4" cx="70.2" cy="63.3" rx="1.9" ry="1.9"/>
		<linearGradient id="SVGID_5_" gradientUnits="userSpaceOnUse" x1="80.9377" y1="50.5251" x2="81.4871" y2="70.4427">
			<stop  offset="0" style="stop-color:#1570A3"/>
			<stop  offset="1" style="stop-color:#B9D7E4"/>
		</linearGradient>
		<ellipse class="st7" cx="81.3" cy="63.4" rx="1.9" ry="1.9"/>
		<linearGradient id="SVGID_6_" gradientUnits="userSpaceOnUse" x1="65.2944" y1="45.735" x2="78.2307" y2="54.9752">
			<stop  offset="0" style="stop-color:#F28B6C"/>
			<stop  offset="1" style="stop-color:#C7586B"/>
		</linearGradient>
		<path class="st8" d="M66.6,45.2h18.7c4,0,7.2,3.2,7.2,7.2v5.5H59.4v-5.5C59.4,48.4,62.6,45.2,66.6,45.2z"/>
	</g>
	<g>
		<linearGradient id="SVGID_7_" gradientUnits="userSpaceOnUse" x1="26.6703" y1="45.7443" x2="74.1889" y2="45.7443">
			<stop  offset="0" style="stop-color:#1570A3"/>
			<stop  offset="1" style="stop-color:#B9D7E4"/>
		</linearGradient>
		<path class="st9" d="M26.7,57.8V47.2c0-3.5,2.8-6.3,6.3-6.3h3.7v0c0-4,3.2-7.2,7.2-7.2h30.3l-0.3,10.6C73.8,46.9,71.7,49,69,49
			H37.6v8.7H26.7z"/>
		<linearGradient id="SVGID_8_" gradientUnits="userSpaceOnUse" x1="25.1734" y1="61.5058" x2="37.5639" y2="61.5058">
			<stop  offset="0" style="stop-color:#F28B6C"/>
			<stop  offset="1" style="stop-color:#FEF6D1"/>
		</linearGradient>
		<ellipse class="st10" cx="31.4" cy="61.5" rx="6.2" ry="5.7"/>
		<linearGradient id="SVGID_9_" gradientUnits="userSpaceOnUse" x1="62.8916" y1="61.8702" x2="75.2821" y2="61.8702">
			<stop  offset="0" style="stop-color:#F28B6C"/>
			<stop  offset="1" style="stop-color:#FEF6D1"/>
		</linearGradient>
		<ellipse class="st11" cx="69.1" cy="61.9" rx="6.2" ry="5.7"/>
		<linearGradient id="SVGID_10_" gradientUnits="userSpaceOnUse" x1="53.5689" y1="98.5523" x2="50.2722" y2="58.7172">
			<stop  offset="0" style="stop-color:#F28B6C"/>
			<stop  offset="1" style="stop-color:#FEF6D1"/>
		</linearGradient>
		<path class="st12" d="M36.9,49c-3.1,0-5.5,2.5-5.5,5.5v12.8h0c0.4,9.4,8.7,16.9,18.8,16.9S68.7,76.8,69,67.3h0V49H36.9z"/>
		<linearGradient id="SVGID_11_" gradientUnits="userSpaceOnUse" x1="42.4818" y1="60.3291" x2="43.7181" y2="70.2192">
			<stop  offset="0" style="stop-color:#1570A3"/>
			<stop  offset="1" style="stop-color:#B9D7E4"/>
		</linearGradient>
		<circle class="st13" cx="42.7" cy="62.3" r="2.7"/>
		<linearGradient id="SVGID_12_" gradientUnits="userSpaceOnUse" x1="57.6588" y1="58.432" x2="58.8951" y2="68.3221">
			<stop  offset="0" style="stop-color:#1570A3"/>
			<stop  offset="1" style="stop-color:#B9D7E4"/>
		</linearGradient>
		<circle class="st14" cx="58.2" cy="62.6" r="2.7"/>
	</g>
</g>
</svg>
